<?xml version="1.0" encoding="UTF-8"?>
<svg id="Layer_2" data-name="Layer 2" xmlns="http://www.w3.org/2000/svg" viewBox="0 0 308.51 308.51">
  <defs>
    <style>
      .cls-1 {
        fill: #fff;
      }

      .cls-2 {
        fill-rule: evenodd;
      }
    </style>
  </defs>
  <g id="Layer_1-2" data-name="Layer 1">
    <g>
      <rect class="cls-1" width="308.51" height="308.51" rx="61.88" ry="61.88"/>
      <g>
        <path class="cls-2" d="m97.5,267.77c31.35,0,56.76-25.41,56.76-56.76s-25.41-56.76-56.76-56.76-56.76,25.41-56.76,56.76,25.41,56.76,56.76,56.76Z"/>
        <path class="cls-2" d="m97.5,135.27c41.83,0,75.74,33.91,75.74,75.74,0,.12,0,.25,0,.37-.05,9.67-1.91,18.91-5.25,27.4-.34.87-.7,1.74-1.08,2.59-.67,2-1.03,4.14-1.03,6.37,0,10.99,8.86,19.92,19.83,20.02h69.81c6.74,0,12.26-5.52,12.26-12.26V53c0-6.74-5.52-12.26-12.26-12.26H53c-6.74,0-12.26,5.52-12.26,12.26v69.66c0,11.06,8.97,20.02,20.02,20.02,3.38,0,6.56-.84,9.35-2.31,8.38-3.25,17.49-5.06,27.01-5.1.12,0,.25,0,.37,0Z"/>
      </g>
    </g>
  </g>
</svg>